<?xml version="1.0" encoding="utf-8"?>
<svg width="138px" height="120px" viewBox="0 0 138 120" version="1.1" xmlns:xlink="http://www.w3.org/1999/xlink" xmlns="http://www.w3.org/2000/svg">
  <g id="plane-departure_9243314">
    <path d="M35.6615 85.7139C29.0318 85.7139 22.4135 83.6968 16.813 79.7367L4.88175 71.3023C2.30575 69.4852 0.56925 66.6623 0.12075 63.5708C-0.30475 60.6622 0.43125 57.8336 2.1965 55.5936C5.175 51.8107 10.1833 50.365 14.6683 51.9936L33.3385 58.8051L117.605 18.4561C124.804 15.1475 133.343 18.2846 136.666 25.4276C139.99 32.5591 136.885 41.1135 129.749 44.5021L49.542 82.5996C45.1433 84.6853 40.3995 85.7139 35.6558 85.7139L35.6615 85.7139ZM138 114.286C138 111.126 135.424 108.571 132.25 108.571L5.75 108.571C2.576 108.571 0 111.126 0 114.286C0 117.446 2.576 120 5.75 120L132.25 120C135.424 120 138 117.446 138 114.286ZM49.5305 38.3706L80.6898 23.4504L47.058 2.81019C42.8375 -0.304126 37.2427 -0.875561 32.4415 1.32446L27.9508 3.42163C25.3172 4.65021 23.5002 7.09595 23.0863 9.95884C22.6723 12.8274 23.7245 15.6789 25.9037 17.5989L49.5247 38.3763L49.5305 38.3706Z" id="Shape" fill="#000000" stroke="none" />
  </g>
</svg>