<svg xmlns="http://www.w3.org/2000/svg" width="249" height="172" viewBox="0 0 249 172">
  <g id="Climate_Aero_Logo_A5__1" data-name="Climate Aero Logo A5__1" opacity="0.811">
    <path id="Fill_1" data-name="Fill 1" d="M11.484,25a10.579,10.579,0,0,1-5.805-1.691,11.861,11.861,0,0,1-4.165-4.57A13.157,13.157,0,0,1,0,12.523,13.05,13.05,0,0,1,1.556,6.216,12,12,0,0,1,5.763,1.668,10.546,10.546,0,0,1,11.484,0,10.292,10.292,0,0,1,17.9,2.171,12.137,12.137,0,0,1,22,7.907L16.994,9.415a6.688,6.688,0,0,0-2.187-2.949,5.358,5.358,0,0,0-3.323-1.119,5.614,5.614,0,0,0-3.218.982A6.909,6.909,0,0,0,5.973,8.958a7.713,7.713,0,0,0-.841,3.565,7.709,7.709,0,0,0,.841,3.564,6.719,6.719,0,0,0,2.293,2.606,5.708,5.708,0,0,0,3.218.96,5.318,5.318,0,0,0,3.343-1.12,6.776,6.776,0,0,0,2.167-2.9L22,17.139a12.211,12.211,0,0,1-4.081,5.69A10.265,10.265,0,0,1,11.484,25" transform="translate(0 147)" fill="#009949"/>
    <path id="Fill_2" data-name="Fill 2" d="M0,31H6V0H0Z" transform="translate(24 141)" fill="#009949"/>
    <path id="Fill_3" data-name="Fill 3" d="M6.189,33H.683V9.649H6.189V33ZM3.5,7.137A3.367,3.367,0,0,1,1.024,6.1,3.475,3.475,0,0,1,0,3.569,3.482,3.482,0,0,1,1.024,1.036,3.373,3.373,0,0,1,3.5,0,3.373,3.373,0,0,1,5.976,1.036,3.482,3.482,0,0,1,7,3.569,3.475,3.475,0,0,1,5.976,6.1,3.367,3.367,0,0,1,3.5,7.137Z" transform="translate(33 139)" fill="#009949"/>
    <path id="Fill_4" data-name="Fill 4" d="M0,.367H5.47V2.776A8.479,8.479,0,0,1,8.037.755,7.181,7.181,0,0,1,11.361,0a8.149,8.149,0,0,1,3.871.959A8.056,8.056,0,0,1,18.22,3.714,9.3,9.3,0,0,1,25.584,0a8.6,8.6,0,0,1,4.1,1.02A8.06,8.06,0,0,1,32.8,4,8.741,8.741,0,0,1,34,8.653V22H28.53V9.878A5.978,5.978,0,0,0,27.5,6.163,3.559,3.559,0,0,0,24.49,4.816a4.363,4.363,0,0,0-4.082,2.429,6.859,6.859,0,0,0-.673,2.51V22H14.264V9.878a5.978,5.978,0,0,0-1.031-3.714,3.557,3.557,0,0,0-3.008-1.347,4.448,4.448,0,0,0-2.672.775A4.525,4.525,0,0,0,5.975,7.653a7.823,7.823,0,0,0-.5,2.877V22H0V.367" transform="translate(43 147)" fill="#009949"/>
    <path id="Fill_5" data-name="Fill 5" d="M11.933,25a11.1,11.1,0,0,1-5.966-1.715,12.623,12.623,0,0,1-4.356-4.57A12.438,12.438,0,0,1,0,12.523,12.752,12.752,0,0,1,1.611,6.215,12.281,12.281,0,0,1,5.944,1.668,11.3,11.3,0,0,1,11.933,0,9.55,9.55,0,0,1,19.1,3.062V.41H25V24.634H19.1v-2.6a9.767,9.767,0,0,1-3.13,2.171A9.963,9.963,0,0,1,11.933,25Zm.545-19.652a6.65,6.65,0,0,0-3.516.982A7.231,7.231,0,0,0,5.49,12.523a7.023,7.023,0,0,0,.931,3.542,7.107,7.107,0,0,0,2.517,2.582,6.961,6.961,0,0,0,7.056,0,7.186,7.186,0,0,0,2.564-2.606,6.98,6.98,0,0,0,0-7.039,7.566,7.566,0,0,0-2.564-2.65A6.545,6.545,0,0,0,12.478,5.348Z" transform="translate(79 147)" fill="#009949"/>
    <path id="Fill_6" data-name="Fill 6" d="M18,27.363a16.972,16.972,0,0,1-6.907.464A8.21,8.21,0,0,1,6.21,25.385a7.322,7.322,0,0,1-1.791-5.178L4.466,9.935H0V5.22H4.466V0h5.953V5.22h7.3V9.935h-7.3l-.046,10.23A2.312,2.312,0,0,0,11.233,22a4.211,4.211,0,0,0,2.581.822A11.591,11.591,0,0,0,18,22.059v5.3" transform="translate(106 143)" fill="#009949"/>
    <path id="Fill_7" data-name="Fill 7" d="M12.505,25A12.454,12.454,0,0,1,0,12.523,12.253,12.253,0,0,1,1.7,6.215a12.52,12.52,0,0,1,4.58-4.548A12.3,12.3,0,0,1,12.505,0a12.088,12.088,0,0,1,5.566,1.326,12.621,12.621,0,0,1,4.351,3.656,12.412,12.412,0,0,1,2.315,5.164,11.044,11.044,0,0,1,.045,4.57H5.909a6.147,6.147,0,0,0,1.259,2.742A5.845,5.845,0,0,0,9.5,19.173a7.868,7.868,0,0,0,3,.571,9.222,9.222,0,0,0,3.413-.663,7.921,7.921,0,0,0,2.817-1.85l5.223,1.417a10.843,10.843,0,0,1-4.72,4.616A14.182,14.182,0,0,1,12.505,25ZM12.46,5.256a7.01,7.01,0,0,0-3.069.662A6.343,6.343,0,0,0,7.123,7.724a6.472,6.472,0,0,0-1.213,2.468H18.964A6.5,6.5,0,0,0,17.75,7.724a6.4,6.4,0,0,0-2.244-1.805A6.858,6.858,0,0,0,12.46,5.256Z" transform="translate(123 147)" fill="#009949"/>
    <path id="Fill_8" data-name="Fill 8" d="M3.5,7A3.371,3.371,0,0,1,1.02,5.979,3.323,3.323,0,0,1,0,3.542a3.443,3.443,0,0,1,1.02-2.5A3.343,3.343,0,0,1,3.5,0a3.345,3.345,0,0,1,2.48,1.042A3.446,3.446,0,0,1,7,3.542,3.31,3.31,0,0,1,5.979,6,3.414,3.414,0,0,1,3.5,7" transform="translate(149 165)" fill="#009949"/>
    <path id="Fill_9" data-name="Fill 9" d="M11.932,25a11.1,11.1,0,0,1-5.967-1.715,12.636,12.636,0,0,1-4.355-4.57A12.438,12.438,0,0,1,0,12.523,12.751,12.751,0,0,1,1.61,6.215,12.29,12.29,0,0,1,5.943,1.668,11.3,11.3,0,0,1,11.932,0,9.55,9.55,0,0,1,19.1,3.062V.41H25V24.634H19.1v-2.6A9.747,9.747,0,0,1,15.97,24.2,9.963,9.963,0,0,1,11.932,25Zm.545-19.652A6.66,6.66,0,0,0,8.96,6.33a7.227,7.227,0,0,0-3.47,6.193,7.04,7.04,0,0,0,.93,3.542,7.121,7.121,0,0,0,2.519,2.582,6.959,6.959,0,0,0,7.055,0,7.2,7.2,0,0,0,2.564-2.606,6.98,6.98,0,0,0,0-7.039,7.575,7.575,0,0,0-2.564-2.65A6.541,6.541,0,0,0,12.477,5.348Z" transform="translate(158 147)" fill="#009949"/>
    <path id="Fill_10" data-name="Fill 10" d="M12.505,25A12.456,12.456,0,0,1,0,12.523,12.268,12.268,0,0,1,1.695,6.215,12.534,12.534,0,0,1,6.276,1.668,12.3,12.3,0,0,1,12.505,0a12.087,12.087,0,0,1,5.566,1.326,12.632,12.632,0,0,1,4.351,3.656,12.424,12.424,0,0,1,2.314,5.164,11.06,11.06,0,0,1,.045,4.57H5.909a6.147,6.147,0,0,0,1.259,2.742A5.845,5.845,0,0,0,9.5,19.173a7.874,7.874,0,0,0,3,.571,9.215,9.215,0,0,0,3.413-.663,7.911,7.911,0,0,0,2.817-1.85l5.222,1.417a10.832,10.832,0,0,1-4.719,4.616A14.176,14.176,0,0,1,12.505,25ZM12.46,5.256a7.007,7.007,0,0,0-3.07.662A6.331,6.331,0,0,0,7.124,7.724a6.462,6.462,0,0,0-1.214,2.468H18.965a6.488,6.488,0,0,0-1.214-2.468,6.4,6.4,0,0,0-2.245-1.805A6.856,6.856,0,0,0,12.46,5.256Z" transform="translate(184 147)" fill="#009949"/>
    <path id="Fill_11" data-name="Fill 11" d="M0,.226H5.945V3.471A7.153,7.153,0,0,1,9.375.657,10.712,10.712,0,0,1,15,.144V5.855a8.6,8.6,0,0,0-4.344-.268,6.172,6.172,0,0,0-3.408,1.85,4.942,4.942,0,0,0-1.3,3.471V22H0V.226" transform="translate(209 149)" fill="#009949"/>
    <path id="Fill_12" data-name="Fill 12" d="M10.98,25a9.637,9.637,0,0,1-5.51-1.715,12.136,12.136,0,0,1-4-4.593A13.511,13.511,0,0,1,0,12.477,13.468,13.468,0,0,1,1.473,6.238a12.017,12.017,0,0,1,4-4.548,9.826,9.826,0,0,1,11.02,0,12.152,12.152,0,0,1,4.017,4.571A13.354,13.354,0,0,1,22,12.477a13.452,13.452,0,0,1-1.493,6.262,12.133,12.133,0,0,1-4.017,4.57A9.737,9.737,0,0,1,10.98,25Zm0-19.607a5.261,5.261,0,0,0-3.088.982,6.958,6.958,0,0,0-2.2,2.583,7.739,7.739,0,0,0-.807,3.519,7.877,7.877,0,0,0,.807,3.542A6.631,6.631,0,0,0,7.912,18.6a5.413,5.413,0,0,0,6.156,0,6.868,6.868,0,0,0,2.22-2.582,7.729,7.729,0,0,0,.827-3.542,7.727,7.727,0,0,0-.827-3.542,6.881,6.881,0,0,0-2.22-2.582A5.346,5.346,0,0,0,10.98,5.393Z" transform="translate(225 147)" fill="#009949"/>
    <path id="Fill_13" data-name="Fill 13" d="M248.6,58.064c-.5-19.024-11.958-36.307-28.046-46.968v0l-.042-.028-.019-.013h0C193.417-7.8,155.087-1.765,134.276,23.506a3.3,3.3,0,0,0-.209,3.938L146.318,45.7a3.247,3.247,0,0,0,5.512-.184c6.664-11.554,19.588-18.511,32.733-18.5,21.282-.077,38.341,18.346,37.475,39.2v.043A37.446,37.446,0,0,1,205.4,96.5c-11.724,8.151-27.219,8.384-39.476,1.66a36.513,36.513,0,0,1-14.046-13.613c-6.37-10.677-31.061-52.168-31.558-52.989A65.145,65.145,0,0,0,97.183,8.688h0l-.029-.017h0C68.6-8.48,29.232.658,11.05,28.626h0l-.02.029h0c-22.871,32.961-8.47,80.237,27.47,95.868,24.184,11.252,56.21,4.7,73.908-15.483l2.174-2.37a3.276,3.276,0,0,0,.4-3.884L104.067,84.375a3.246,3.246,0,0,0-5.189-.542c-2.714,2.958-6.317,6.886-6.336,6.908A35.879,35.879,0,0,1,79.86,99.784a37.8,37.8,0,0,1-29.818.2c-18.88-7.6-28.381-31.107-20.147-49.73C38.325,29.424,63.814,21.132,82.9,31.641a37.623,37.623,0,0,1,14.33,13.9c.808,1.064,30.821,51.96,31.52,52.924l0,.006a65.151,65.151,0,0,0,23.132,22.843h0l.029.017c20.083,11.949,45.4,11.254,65.208-.3a3.255,3.255,0,0,1,4.915,2.8v3.9A3.26,3.26,0,0,0,225.293,131h20.453A3.26,3.26,0,0,0,249,127.733l-.4-69.669" fill="#009949"/>
    <path id="Fill_14" data-name="Fill 14" d="M6.5,13a6.372,6.372,0,0,1-4.739-1.922A6.547,6.547,0,0,1,0,6.515,6.551,6.551,0,0,1,1.816,1.882,6.474,6.474,0,0,1,6.5,0a6.458,6.458,0,0,1,4.695,1.9A6.558,6.558,0,0,1,13,6.515,6.52,6.52,0,0,1,11.206,11.1,6.471,6.471,0,0,1,6.5,13Zm0-11.972A5.3,5.3,0,0,0,1.176,6.515,5.2,5.2,0,0,0,6.5,11.944a5.158,5.158,0,0,0,5.353-5.429A5.244,5.244,0,0,0,6.5,1.028ZM5.441,9.949H4.029V2.7H7.177A2.5,2.5,0,0,1,9.706,5.165,2.312,2.312,0,0,1,8.147,7.336l1.646,2.61-1.616,0L6.706,7.512H5.441V9.948Zm0-5.928V6.28H7.147A1.135,1.135,0,0,0,8.323,5.135,1.106,1.106,0,0,0,7.177,4.02Z" transform="translate(234)" fill="#009949"/>
  </g>
</svg>
