<?xml version="1.0" encoding="utf-8"?>
<svg width="228.67969px" height="120px" viewBox="0 0 228.67969 120" version="1.1" xmlns:xlink="http://www.w3.org/1999/xlink" xmlns="http://www.w3.org/2000/svg">
  <path d="M228.308 53.188C227.845 35.7613 217.325 19.9298 202.55 10.1637L202.551 10.1622C202.538 10.1537 202.525 10.1457 202.512 10.1367C202.507 10.1329 202.502 10.1287 202.495 10.1249L202.495 10.1254C177.633 -7.14954 142.431 -1.61667 123.318 21.5321C122.466 22.5636 122.379 24.0292 123.126 25.1392L134.377 41.8664C135.609 43.6985 138.332 43.6077 139.44 41.6976C145.56 31.1137 157.429 24.7405 169.502 24.7495C189.047 24.679 204.714 41.5552 203.918 60.6608L203.918 60.7006C203.564 71.8159 198.202 81.9358 188.638 88.3985C177.871 95.8652 163.641 96.0785 152.384 89.9194C147.155 87.0553 142.646 82.8538 139.484 77.4496C133.635 67.6693 110.958 29.6618 110.502 28.9103C105.307 20.2457 97.9925 13.0301 89.2517 7.95837L89.2521 7.9579C89.2432 7.95317 89.2342 7.94749 89.2252 7.94229L89.2252 7.94276C62.9989 -7.76814 26.8464 0.602341 10.1487 26.2222L10.1482 26.2222C10.1425 26.2312 10.1364 26.2401 10.1302 26.2491L10.1307 26.2491C-10.874 56.4423 2.35229 99.7484 35.3587 114.068C57.569 124.375 86.9816 118.372 103.235 99.8847C103.262 99.8558 104.279 98.7501 105.232 97.7134C106.127 96.7401 106.278 95.2929 105.601 94.1555L95.5746 77.2897C94.5522 75.5692 92.1636 75.3204 90.8091 76.7931C88.3171 79.5026 85.0081 83.1006 84.9906 83.121C81.7986 86.7021 77.7831 89.5028 73.343 91.4049C64.7462 95.0971 54.5561 95.3785 45.9588 91.5856C28.6192 84.6282 19.894 63.0903 27.4561 46.0311C35.1972 26.9529 58.606 19.3575 76.1354 28.9841C81.283 31.7801 85.86 35.9911 89.2961 41.7136C90.0385 42.6884 117.602 89.3108 118.243 90.1933L118.247 90.1989C123.444 98.8527 130.756 106.058 139.491 111.124L139.491 111.124C139.5 111.129 139.509 111.134 139.518 111.14C157.962 122.086 181.217 121.448 199.405 110.865C201.408 109.699 203.918 111.112 203.918 113.433L203.918 117.007C203.918 118.66 205.256 120 206.907 120L225.691 120C227.341 120 228.679 118.66 228.679 117.007L228.308 53.188" id="Fill-13" fill="#FFFFFF" fill-rule="evenodd" stroke="none" />
</svg>