<?xml version="1.0" encoding="utf-8"?>
<svg width="83px" height="60px" viewBox="0 0 83 60" version="1.1" xmlns:xlink="http://www.w3.org/1999/xlink" xmlns="http://www.w3.org/2000/svg">
  <g id="Group">
    <path d="M76.1149 37L6.88505 37C3.08334 37 0 33.8663 0 29.9996C0 26.1329 3.08334 23 6.88505 23L76.1149 23C79.9167 23 83 26.1329 83 29.9996C83 33.8663 79.9167 37 76.1149 37" id="Fill-227" fill="#000000" fill-rule="evenodd" stroke="none" />
    <path d="M52.9124 60C51.1453 60 49.3782 59.3268 48.0245 57.9803C45.3252 55.289 45.3252 50.9239 48.0245 48.2334L66.3117 29.9997L48.0245 11.7659C45.3252 9.07465 45.3252 4.71038 48.0245 2.01908C50.7238 -0.673027 55.1011 -0.673027 57.8004 2.01908L80.9755 25.1263C83.6748 27.8176 83.6748 32.1818 80.9755 34.8731L57.8004 57.9803C56.4548 59.3268 54.6795 60 52.9124 60" id="Fill-228" fill="#000000" fill-rule="evenodd" stroke="none" />
  </g>
</svg>